<svg width="243" height="51" viewBox="0 0 243 51" fill="none" xmlns="http://www.w3.org/2000/svg">
<path d="M0.169922 50V0.507812H19.8574C30.7949 0.507812 36.2637 5.77148 36.2637 13.2227C36.2637 19.0332 32.5039 22.6562 27.377 23.8184V24.2969C32.9824 24.5703 38.2461 29.0137 38.2461 36.3281C38.2461 44.1895 32.3672 50 21.1562 50H0.169922ZM19.1055 41.5234C25.0527 41.5234 27.582 39.0625 27.582 35.3711C27.582 31.2012 24.4375 28.2617 19.3789 28.2617H10.4238V41.5234H19.1055ZM18.3535 21.2207C22.6602 21.2207 25.873 18.8281 25.873 14.8633C25.873 11.3086 23.2754 8.84766 18.5586 8.84766H10.4238V21.2207H18.3535ZM52.4453 50.4297C45.9609 50.4297 41.9766 46.2109 41.9766 39.4922C41.9766 32.9297 46 28.5156 52.2109 28.5156C57.7969 28.5156 62.1719 32.0312 62.1719 39.2578V40.8984H47.6797C47.6797 44.1016 49.5938 46.0938 52.5625 46.0938C54.5156 46.0938 55.9219 45.2344 56.5078 43.9453H62.0156C61.1953 47.8516 57.6797 50.4297 52.4453 50.4297ZM47.6797 37.2656H56.7031C56.7031 34.6875 54.9062 32.8516 52.3281 32.8516C49.6719 32.8516 47.7773 34.8242 47.6797 37.2656ZM76.9766 28.7891V33.125H72.9922V43.4766C72.9922 45.1562 73.8125 45.5859 74.9844 45.625C75.5703 45.625 76.5859 45.5859 77.2891 45.5078V50.0781C76.6641 50.1953 75.6484 50.2734 74.2031 50.2734C70.0234 50.2734 67.1719 48.3984 67.2109 44.2969V33.125H64.2812V28.7891H67.2109V23.7109H72.9922V28.7891H76.9766ZM91.7812 28.7891V33.125H87.7969V43.4766C87.7969 45.1562 88.6172 45.5859 89.7891 45.625C90.375 45.625 91.3906 45.5859 92.0938 45.5078V50.0781C91.4688 50.1953 90.4531 50.2734 89.0078 50.2734C84.8281 50.2734 81.9766 48.3984 82.0156 44.2969V33.125H79.0859V28.7891H82.0156V23.7109H87.7969V28.7891H91.7812ZM104.789 50.4297C98.3047 50.4297 94.3203 46.2109 94.3203 39.4922C94.3203 32.9297 98.3438 28.5156 104.555 28.5156C110.141 28.5156 114.516 32.0312 114.516 39.2578V40.8984H100.023C100.023 44.1016 101.938 46.0938 104.906 46.0938C106.859 46.0938 108.266 45.2344 108.852 43.9453H114.359C113.539 47.8516 110.023 50.4297 104.789 50.4297ZM100.023 37.2656H109.047C109.047 34.6875 107.25 32.8516 104.672 32.8516C102.016 32.8516 100.121 34.8242 100.023 37.2656ZM118.148 50V28.7891H123.734V32.4609H123.969C124.75 29.8438 126.703 28.4766 129.086 28.4766C129.672 28.4766 130.414 28.5547 130.922 28.6719V33.8281C130.375 33.6719 129.281 33.5156 128.461 33.5156C125.844 33.5156 123.93 35.3516 123.93 37.9297V50H118.148ZM144.857 50V0.507812H155.111V22.4512H155.795L173.773 0.507812H186.146L167.689 22.6562L186.352 50H174.047L160.307 29.5605L155.111 35.8496V50H144.857ZM189.369 50V28.7891H195.15V50H189.369ZM192.26 26.0156C190.502 26.0156 189.096 24.6875 189.096 23.0859C189.096 21.4453 190.502 20.1172 192.26 20.1172C193.979 20.1172 195.385 21.4453 195.385 23.0859C195.385 24.6875 193.979 26.0156 192.26 26.0156ZM209.174 50.4297C202.689 50.4297 198.783 45.9375 198.783 39.4531C198.783 32.9688 202.729 28.5156 209.174 28.5156C214.643 28.5156 218.354 31.7188 218.588 36.5625H213.158C212.807 34.4531 211.439 33.0078 209.252 33.0078C206.479 33.0078 204.643 35.3516 204.643 39.375C204.643 43.4766 206.439 45.8203 209.252 45.8203C211.283 45.8203 212.807 44.5703 213.158 42.3047H218.588C218.314 47.1094 214.799 50.4297 209.174 50.4297ZM222.182 50V21.7188H227.963V36.9141H228.275L235.15 28.7891H241.791L233.9 37.9688L242.221 50H235.424L229.604 41.3672L227.963 43.2031V50H222.182Z" fill="black"/>
</svg>
