<svg width="80" height="86" viewBox="0 0 80 86" fill="none" xmlns="http://www.w3.org/2000/svg">
<path d="M74.6667 0.0179596L38.2222 28.8159L32.8444 24.3458L26.6667 17.87L11.1111 30.1054L17.7778 36.5527L28.8889 47.2982L29.2308 85.982H40L44.6154 45.8655L80 6.03544L74.6667 0.0179596ZM8.88889 4.31616C11.2464 4.31616 13.5073 5.22185 15.1743 6.83399C16.8413 8.44613 17.7778 10.6327 17.7778 12.9126C17.7778 15.1925 16.8413 17.379 15.1743 18.9911C13.5073 20.6033 11.2464 21.509 8.88889 21.509C3.95556 21.509 0 17.6836 0 12.9126C0 8.14156 4 4.31616 8.88889 4.31616Z" fill="black"/>
</svg>
